<svg width="192" height="192" viewBox="0 0 192 192" xmlns="http://www.w3.org/2000/svg">
  <defs>
    <linearGradient id="bg" x1="0%" y1="0%" x2="100%" y2="100%">
      <stop offset="0%" style="stop-color:#667eea;stop-opacity:1" />
      <stop offset="100%" style="stop-color:#764ba2;stop-opacity:1" />
    </linearGradient>
    <linearGradient id="icon" x1="0%" y1="0%" x2="100%" y2="100%">
      <stop offset="0%" style="stop-color:#ffffff;stop-opacity:1" />
      <stop offset="100%" style="stop-color:#f8fafc;stop-opacity:1" />
    </linearGradient>
  </defs>
  
  <!-- Fondo redondeado -->
  <rect width="192" height="192" rx="42" ry="42" fill="url(#bg)"/>
  
  <!-- Icono principal - Lista con checkmarks -->
  <g transform="translate(48, 48)">
    <!-- Lista principal -->
    <rect x="0" y="0" width="96" height="96" rx="12" fill="url(#icon)" opacity="0.9"/>
    
    <!-- Elementos de la lista -->
    <g transform="translate(16, 16)">
      <!-- Elemento 1 - Tarea completada -->
      <circle cx="8" cy="8" r="6" fill="#22c55e"/>
      <path d="M5 8 L7 10 L11 6" stroke="white" stroke-width="2" fill="none" stroke-linecap="round" stroke-linejoin="round"/>
      <rect x="20" y="4" width="44" height="8" rx="4" fill="#3b82f6"/>
      
      <!-- Elemento 2 - Nota -->
      <circle cx="8" cy="24" r="6" fill="#f59e0b"/>
      <path d="M8 20 L8 28 M5 24 L11 24" stroke="white" stroke-width="2" stroke-linecap="round"/>
      <rect x="20" y="20" width="44" height="8" rx="4" fill="#f59e0b"/>
      
      <!-- Elemento 3 - Recordatorio -->
      <circle cx="8" cy="40" r="6" fill="#ef4444"/>
      <path d="M8 36 L8 44 M5 40 L11 40" stroke="white" stroke-width="2" stroke-linecap="round"/>
      <rect x="20" y="36" width="44" height="8" rx="4" fill="#ef4444"/>
      
      <!-- Elemento 4 - Compra -->
      <circle cx="8" cy="56" r="6" fill="#8b5cf6"/>
      <path d="M5 56 L11 56 M8 53 L8 59" stroke="white" stroke-width="2" stroke-linecap="round"/>
      <rect x="20" y="52" width="44" height="8" rx="4" fill="#8b5cf6"/>
    </g>
  </g>
  
  <!-- Sombra sutil -->
  <ellipse cx="96" cy="180" rx="60" ry="8" fill="rgba(0,0,0,0.1)"/>
</svg>
